<mxfile host="app.diagrams.net" modified="2024-03-20T02:47:35.500Z" agent="Mozilla/5.0 (Windows NT 10.0; Win64; x64) AppleWebKit/537.36 (KHTML, like Gecko) Chrome/122.0.0.0 Safari/537.36 Edg/122.0.0.0" etag="tB_zcmDh6Yf40pgqG7SM" version="24.0.7" type="device" pages="2">
  <diagram name="3-layer" id="03p-zW3sX80T0yifoNtm">
    <mxGraphModel dx="459" dy="235" grid="0" gridSize="10" guides="1" tooltips="1" connect="1" arrows="1" fold="1" page="1" pageScale="1" pageWidth="850" pageHeight="1100" math="0" shadow="0">
      <root>
        <mxCell id="0" />
        <mxCell id="1" parent="0" />
        <mxCell id="LjZdL08-aISY_FVT_bi6-1" value="y&lt;sub&gt;1&lt;/sub&gt;" style="ellipse;whiteSpace=wrap;html=1;aspect=fixed;" parent="1" vertex="1">
          <mxGeometry x="270" y="120" width="40" height="40" as="geometry" />
        </mxCell>
        <mxCell id="LjZdL08-aISY_FVT_bi6-2" value="y&lt;sub&gt;M&lt;/sub&gt;" style="ellipse;whiteSpace=wrap;html=1;aspect=fixed;" parent="1" vertex="1">
          <mxGeometry x="370" y="120" width="40" height="40" as="geometry" />
        </mxCell>
        <mxCell id="LjZdL08-aISY_FVT_bi6-9" value="a&lt;sub&gt;1&lt;/sub&gt;" style="ellipse;whiteSpace=wrap;html=1;aspect=fixed;" parent="1" vertex="1">
          <mxGeometry x="200" y="200" width="40" height="40" as="geometry" />
        </mxCell>
        <mxCell id="LjZdL08-aISY_FVT_bi6-10" value="a&lt;sub&gt;D&lt;/sub&gt;" style="ellipse;whiteSpace=wrap;html=1;aspect=fixed;" parent="1" vertex="1">
          <mxGeometry x="440" y="200" width="40" height="40" as="geometry" />
        </mxCell>
        <mxCell id="LjZdL08-aISY_FVT_bi6-12" value="x&lt;sub&gt;1&lt;/sub&gt;" style="ellipse;whiteSpace=wrap;html=1;aspect=fixed;" parent="1" vertex="1">
          <mxGeometry x="220" y="280" width="40" height="40" as="geometry" />
        </mxCell>
        <mxCell id="LjZdL08-aISY_FVT_bi6-14" value="x&lt;sub&gt;N&lt;/sub&gt;" style="ellipse;whiteSpace=wrap;html=1;aspect=fixed;" parent="1" vertex="1">
          <mxGeometry x="420" y="280" width="40" height="40" as="geometry" />
        </mxCell>
        <mxCell id="LjZdL08-aISY_FVT_bi6-33" value="" style="endArrow=classic;html=1;rounded=0;entryX=0.5;entryY=1;entryDx=0;entryDy=0;exitX=0.5;exitY=0;exitDx=0;exitDy=0;" parent="1" source="LjZdL08-aISY_FVT_bi6-14" target="LjZdL08-aISY_FVT_bi6-10" edge="1">
          <mxGeometry width="50" height="50" relative="1" as="geometry">
            <mxPoint x="220" y="220" as="sourcePoint" />
            <mxPoint x="216" y="164" as="targetPoint" />
          </mxGeometry>
        </mxCell>
        <mxCell id="LjZdL08-aISY_FVT_bi6-40" value="" style="endArrow=classic;html=1;rounded=0;entryX=0.5;entryY=1;entryDx=0;entryDy=0;exitX=0.5;exitY=0;exitDx=0;exitDy=0;" parent="1" source="LjZdL08-aISY_FVT_bi6-14" target="LjZdL08-aISY_FVT_bi6-9" edge="1">
          <mxGeometry width="50" height="50" relative="1" as="geometry">
            <mxPoint x="350" y="290" as="sourcePoint" />
            <mxPoint x="350" y="250" as="targetPoint" />
          </mxGeometry>
        </mxCell>
        <mxCell id="LjZdL08-aISY_FVT_bi6-43" value="" style="endArrow=classic;html=1;rounded=0;entryX=0.5;entryY=1;entryDx=0;entryDy=0;exitX=0.5;exitY=0;exitDx=0;exitDy=0;" parent="1" source="LjZdL08-aISY_FVT_bi6-12" target="LjZdL08-aISY_FVT_bi6-10" edge="1">
          <mxGeometry width="50" height="50" relative="1" as="geometry">
            <mxPoint x="336" y="296" as="sourcePoint" />
            <mxPoint x="284" y="244" as="targetPoint" />
          </mxGeometry>
        </mxCell>
        <mxCell id="LjZdL08-aISY_FVT_bi6-44" value="" style="endArrow=classic;html=1;rounded=0;exitX=1;exitY=0;exitDx=0;exitDy=0;entryX=0.5;entryY=1;entryDx=0;entryDy=0;" parent="1" source="LjZdL08-aISY_FVT_bi6-9" target="LjZdL08-aISY_FVT_bi6-2" edge="1">
          <mxGeometry width="50" height="50" relative="1" as="geometry">
            <mxPoint x="280" y="220" as="sourcePoint" />
            <mxPoint x="325.85786437626905" y="154.14213562373095" as="targetPoint" />
          </mxGeometry>
        </mxCell>
        <mxCell id="LjZdL08-aISY_FVT_bi6-45" value="" style="endArrow=classic;html=1;rounded=0;exitX=0.5;exitY=0;exitDx=0;exitDy=0;entryX=0.5;entryY=1;entryDx=0;entryDy=0;" parent="1" source="LjZdL08-aISY_FVT_bi6-10" target="LjZdL08-aISY_FVT_bi6-1" edge="1">
          <mxGeometry width="50" height="50" relative="1" as="geometry">
            <mxPoint x="284" y="216" as="sourcePoint" />
            <mxPoint x="270" y="180" as="targetPoint" />
          </mxGeometry>
        </mxCell>
        <mxCell id="LjZdL08-aISY_FVT_bi6-46" value="" style="endArrow=classic;html=1;rounded=0;exitX=0.5;exitY=0;exitDx=0;exitDy=0;entryX=0.5;entryY=1;entryDx=0;entryDy=0;" parent="1" source="LjZdL08-aISY_FVT_bi6-10" target="LjZdL08-aISY_FVT_bi6-2" edge="1">
          <mxGeometry width="50" height="50" relative="1" as="geometry">
            <mxPoint x="336" y="216" as="sourcePoint" />
            <mxPoint x="340" y="160" as="targetPoint" />
          </mxGeometry>
        </mxCell>
        <mxCell id="LjZdL08-aISY_FVT_bi6-47" value="" style="endArrow=classic;html=1;rounded=0;entryX=0.5;entryY=1;entryDx=0;entryDy=0;" parent="1" source="LjZdL08-aISY_FVT_bi6-9" target="LjZdL08-aISY_FVT_bi6-1" edge="1">
          <mxGeometry width="50" height="50" relative="1" as="geometry">
            <mxPoint x="350" y="210" as="sourcePoint" />
            <mxPoint x="260" y="160" as="targetPoint" />
          </mxGeometry>
        </mxCell>
        <mxCell id="YPc1L9NxUFJLbUjkhY_K-1" value="x&lt;span style=&quot;font-size: 10px;&quot;&gt;2&lt;/span&gt;" style="ellipse;whiteSpace=wrap;html=1;aspect=fixed;" vertex="1" parent="1">
          <mxGeometry x="300" y="280" width="40" height="40" as="geometry" />
        </mxCell>
        <mxCell id="YPc1L9NxUFJLbUjkhY_K-2" value="" style="endArrow=classic;html=1;rounded=0;entryX=0.5;entryY=1;entryDx=0;entryDy=0;exitX=0.5;exitY=0;exitDx=0;exitDy=0;" edge="1" parent="1" source="LjZdL08-aISY_FVT_bi6-12" target="LjZdL08-aISY_FVT_bi6-9">
          <mxGeometry width="50" height="50" relative="1" as="geometry">
            <mxPoint x="230" y="270" as="sourcePoint" />
            <mxPoint x="470" y="250" as="targetPoint" />
          </mxGeometry>
        </mxCell>
        <mxCell id="YPc1L9NxUFJLbUjkhY_K-3" value="" style="endArrow=classic;html=1;rounded=0;exitX=0.5;exitY=0;exitDx=0;exitDy=0;entryX=0.5;entryY=1;entryDx=0;entryDy=0;" edge="1" parent="1" source="YPc1L9NxUFJLbUjkhY_K-1" target="LjZdL08-aISY_FVT_bi6-9">
          <mxGeometry width="50" height="50" relative="1" as="geometry">
            <mxPoint x="430" y="290" as="sourcePoint" />
            <mxPoint x="340" y="240" as="targetPoint" />
          </mxGeometry>
        </mxCell>
        <mxCell id="YPc1L9NxUFJLbUjkhY_K-4" value="" style="endArrow=classic;html=1;rounded=0;exitX=0.5;exitY=0;exitDx=0;exitDy=0;entryX=0.5;entryY=1;entryDx=0;entryDy=0;" edge="1" parent="1" source="YPc1L9NxUFJLbUjkhY_K-1" target="LjZdL08-aISY_FVT_bi6-10">
          <mxGeometry width="50" height="50" relative="1" as="geometry">
            <mxPoint x="350" y="290" as="sourcePoint" />
            <mxPoint x="230" y="250" as="targetPoint" />
          </mxGeometry>
        </mxCell>
        <mxCell id="YPc1L9NxUFJLbUjkhY_K-5" value="a&lt;span style=&quot;font-size: 10px;&quot;&gt;&lt;sub&gt;2&lt;/sub&gt;&lt;/span&gt;" style="ellipse;whiteSpace=wrap;html=1;aspect=fixed;" vertex="1" parent="1">
          <mxGeometry x="280" y="200" width="40" height="40" as="geometry" />
        </mxCell>
        <mxCell id="YPc1L9NxUFJLbUjkhY_K-7" value="" style="endArrow=classic;html=1;rounded=0;entryX=0.5;entryY=1;entryDx=0;entryDy=0;exitX=0.5;exitY=0;exitDx=0;exitDy=0;" edge="1" parent="1" source="LjZdL08-aISY_FVT_bi6-12" target="YPc1L9NxUFJLbUjkhY_K-5">
          <mxGeometry width="50" height="50" relative="1" as="geometry">
            <mxPoint x="450" y="290" as="sourcePoint" />
            <mxPoint x="470" y="250" as="targetPoint" />
          </mxGeometry>
        </mxCell>
        <mxCell id="YPc1L9NxUFJLbUjkhY_K-8" value="" style="endArrow=classic;html=1;rounded=0;entryX=0.5;entryY=1;entryDx=0;entryDy=0;exitX=0.5;exitY=0;exitDx=0;exitDy=0;" edge="1" parent="1" source="YPc1L9NxUFJLbUjkhY_K-1" target="YPc1L9NxUFJLbUjkhY_K-5">
          <mxGeometry width="50" height="50" relative="1" as="geometry">
            <mxPoint x="250" y="290" as="sourcePoint" />
            <mxPoint x="310" y="250" as="targetPoint" />
          </mxGeometry>
        </mxCell>
        <mxCell id="YPc1L9NxUFJLbUjkhY_K-9" value="" style="endArrow=classic;html=1;rounded=0;entryX=0.5;entryY=1;entryDx=0;entryDy=0;exitX=0.5;exitY=0;exitDx=0;exitDy=0;" edge="1" parent="1" source="LjZdL08-aISY_FVT_bi6-14" target="YPc1L9NxUFJLbUjkhY_K-5">
          <mxGeometry width="50" height="50" relative="1" as="geometry">
            <mxPoint x="330" y="290" as="sourcePoint" />
            <mxPoint x="310" y="250" as="targetPoint" />
          </mxGeometry>
        </mxCell>
        <mxCell id="YPc1L9NxUFJLbUjkhY_K-10" value="" style="endArrow=classic;html=1;rounded=0;exitX=0.5;exitY=0;exitDx=0;exitDy=0;entryX=0.5;entryY=1;entryDx=0;entryDy=0;" edge="1" parent="1" source="YPc1L9NxUFJLbUjkhY_K-5" target="LjZdL08-aISY_FVT_bi6-1">
          <mxGeometry width="50" height="50" relative="1" as="geometry">
            <mxPoint x="470" y="210" as="sourcePoint" />
            <mxPoint x="300" y="170" as="targetPoint" />
          </mxGeometry>
        </mxCell>
        <mxCell id="YPc1L9NxUFJLbUjkhY_K-11" value="" style="endArrow=classic;html=1;rounded=0;exitX=0.5;exitY=0;exitDx=0;exitDy=0;entryX=0.5;entryY=1;entryDx=0;entryDy=0;" edge="1" parent="1" source="YPc1L9NxUFJLbUjkhY_K-5" target="LjZdL08-aISY_FVT_bi6-2">
          <mxGeometry width="50" height="50" relative="1" as="geometry">
            <mxPoint x="310" y="210" as="sourcePoint" />
            <mxPoint x="300" y="170" as="targetPoint" />
          </mxGeometry>
        </mxCell>
        <mxCell id="YPc1L9NxUFJLbUjkhY_K-12" value="&lt;font style=&quot;font-size: 18px;&quot;&gt;...&lt;/font&gt;" style="text;html=1;align=center;verticalAlign=middle;whiteSpace=wrap;rounded=0;" vertex="1" parent="1">
          <mxGeometry x="350" y="200" width="60" height="30" as="geometry" />
        </mxCell>
        <mxCell id="YPc1L9NxUFJLbUjkhY_K-13" value="&lt;font style=&quot;font-size: 18px;&quot;&gt;...&lt;/font&gt;" style="text;html=1;align=center;verticalAlign=middle;whiteSpace=wrap;rounded=0;" vertex="1" parent="1">
          <mxGeometry x="350" y="280" width="60" height="30" as="geometry" />
        </mxCell>
        <mxCell id="YPc1L9NxUFJLbUjkhY_K-14" value="&lt;font style=&quot;font-size: 18px;&quot;&gt;...&lt;/font&gt;" style="text;html=1;align=center;verticalAlign=middle;whiteSpace=wrap;rounded=0;" vertex="1" parent="1">
          <mxGeometry x="310" y="120" width="60" height="30" as="geometry" />
        </mxCell>
      </root>
    </mxGraphModel>
  </diagram>
  <diagram id="_b8SMo2k_ZM9IYNuo2tL" name="2-layer">
    <mxGraphModel dx="680" dy="348" grid="1" gridSize="10" guides="1" tooltips="1" connect="1" arrows="1" fold="1" page="1" pageScale="1" pageWidth="850" pageHeight="1100" math="0" shadow="0">
      <root>
        <mxCell id="0" />
        <mxCell id="1" parent="0" />
        <mxCell id="AzMeQ_QM5MPb9jlrj5k_-1" value="y&lt;sub&gt;1&lt;/sub&gt;" style="ellipse;whiteSpace=wrap;html=1;aspect=fixed;" vertex="1" parent="1">
          <mxGeometry x="270" y="200" width="40" height="40" as="geometry" />
        </mxCell>
        <mxCell id="AzMeQ_QM5MPb9jlrj5k_-2" value="y&lt;span style=&quot;font-size: 10px;&quot;&gt;&lt;sub&gt;M&lt;/sub&gt;&lt;/span&gt;" style="ellipse;whiteSpace=wrap;html=1;aspect=fixed;" vertex="1" parent="1">
          <mxGeometry x="370" y="200" width="40" height="40" as="geometry" />
        </mxCell>
        <mxCell id="AzMeQ_QM5MPb9jlrj5k_-5" value="x&lt;sub&gt;1&lt;/sub&gt;" style="ellipse;whiteSpace=wrap;html=1;aspect=fixed;" vertex="1" parent="1">
          <mxGeometry x="220" y="280" width="40" height="40" as="geometry" />
        </mxCell>
        <mxCell id="AzMeQ_QM5MPb9jlrj5k_-6" value="x&lt;sub&gt;N&lt;/sub&gt;" style="ellipse;whiteSpace=wrap;html=1;aspect=fixed;" vertex="1" parent="1">
          <mxGeometry x="420" y="280" width="40" height="40" as="geometry" />
        </mxCell>
        <mxCell id="AzMeQ_QM5MPb9jlrj5k_-10" value="" style="endArrow=classic;html=1;rounded=0;exitX=0.5;exitY=0;exitDx=0;exitDy=0;entryX=0.5;entryY=1;entryDx=0;entryDy=0;" edge="1" parent="1" source="AzMeQ_QM5MPb9jlrj5k_-5" target="AzMeQ_QM5MPb9jlrj5k_-2">
          <mxGeometry width="50" height="50" relative="1" as="geometry">
            <mxPoint x="234.14213562373106" y="205.85786437626894" as="sourcePoint" />
            <mxPoint x="325.85786437626905" y="154.14213562373095" as="targetPoint" />
          </mxGeometry>
        </mxCell>
        <mxCell id="AzMeQ_QM5MPb9jlrj5k_-11" value="" style="endArrow=classic;html=1;rounded=0;exitX=0.5;exitY=0;exitDx=0;exitDy=0;entryX=0.5;entryY=1;entryDx=0;entryDy=0;" edge="1" parent="1" source="AzMeQ_QM5MPb9jlrj5k_-6" target="AzMeQ_QM5MPb9jlrj5k_-1">
          <mxGeometry width="50" height="50" relative="1" as="geometry">
            <mxPoint x="460" y="200" as="sourcePoint" />
            <mxPoint x="270" y="180" as="targetPoint" />
          </mxGeometry>
        </mxCell>
        <mxCell id="AzMeQ_QM5MPb9jlrj5k_-12" value="" style="endArrow=classic;html=1;rounded=0;exitX=0.5;exitY=0;exitDx=0;exitDy=0;entryX=0.5;entryY=1;entryDx=0;entryDy=0;" edge="1" parent="1" source="AzMeQ_QM5MPb9jlrj5k_-6" target="AzMeQ_QM5MPb9jlrj5k_-2">
          <mxGeometry width="50" height="50" relative="1" as="geometry">
            <mxPoint x="460" y="200" as="sourcePoint" />
            <mxPoint x="340" y="160" as="targetPoint" />
          </mxGeometry>
        </mxCell>
        <mxCell id="AzMeQ_QM5MPb9jlrj5k_-13" value="" style="endArrow=classic;html=1;rounded=0;entryX=0.5;entryY=1;entryDx=0;entryDy=0;exitX=0.5;exitY=0;exitDx=0;exitDy=0;" edge="1" parent="1" source="AzMeQ_QM5MPb9jlrj5k_-5" target="AzMeQ_QM5MPb9jlrj5k_-1">
          <mxGeometry width="50" height="50" relative="1" as="geometry">
            <mxPoint x="235.15331515032722" y="206.94714437546077" as="sourcePoint" />
            <mxPoint x="260" y="160" as="targetPoint" />
          </mxGeometry>
        </mxCell>
        <mxCell id="AzMeQ_QM5MPb9jlrj5k_-14" value="x&lt;span style=&quot;font-size: 10px;&quot;&gt;2&lt;/span&gt;" style="ellipse;whiteSpace=wrap;html=1;aspect=fixed;" vertex="1" parent="1">
          <mxGeometry x="300" y="280" width="40" height="40" as="geometry" />
        </mxCell>
        <mxCell id="AzMeQ_QM5MPb9jlrj5k_-22" value="" style="endArrow=classic;html=1;rounded=0;exitX=0.5;exitY=0;exitDx=0;exitDy=0;entryX=0.5;entryY=1;entryDx=0;entryDy=0;" edge="1" parent="1" source="AzMeQ_QM5MPb9jlrj5k_-14" target="AzMeQ_QM5MPb9jlrj5k_-1">
          <mxGeometry width="50" height="50" relative="1" as="geometry">
            <mxPoint x="300" y="200" as="sourcePoint" />
            <mxPoint x="300" y="170" as="targetPoint" />
          </mxGeometry>
        </mxCell>
        <mxCell id="AzMeQ_QM5MPb9jlrj5k_-23" value="" style="endArrow=classic;html=1;rounded=0;exitX=0.5;exitY=0;exitDx=0;exitDy=0;entryX=0.5;entryY=1;entryDx=0;entryDy=0;" edge="1" parent="1" source="AzMeQ_QM5MPb9jlrj5k_-14" target="AzMeQ_QM5MPb9jlrj5k_-2">
          <mxGeometry width="50" height="50" relative="1" as="geometry">
            <mxPoint x="300" y="200" as="sourcePoint" />
            <mxPoint x="300" y="170" as="targetPoint" />
          </mxGeometry>
        </mxCell>
        <mxCell id="AzMeQ_QM5MPb9jlrj5k_-25" value="&lt;font style=&quot;font-size: 18px;&quot;&gt;...&lt;/font&gt;" style="text;html=1;align=center;verticalAlign=middle;whiteSpace=wrap;rounded=0;" vertex="1" parent="1">
          <mxGeometry x="350" y="280" width="60" height="30" as="geometry" />
        </mxCell>
        <mxCell id="AzMeQ_QM5MPb9jlrj5k_-26" value="&lt;font style=&quot;font-size: 18px;&quot;&gt;...&lt;/font&gt;" style="text;html=1;align=center;verticalAlign=middle;whiteSpace=wrap;rounded=0;" vertex="1" parent="1">
          <mxGeometry x="310" y="200" width="60" height="30" as="geometry" />
        </mxCell>
      </root>
    </mxGraphModel>
  </diagram>
</mxfile>
